<?xml version="1.0" standalone="no"?>
<!DOCTYPE svg PUBLIC "-//W3C//DTD SVG 20010904//EN"
 "http://www.w3.org/TR/2001/REC-SVG-20010904/DTD/svg10.dtd">
<svg version="1.0" xmlns="http://www.w3.org/2000/svg"
 width="225.000000pt" height="225.000000pt" viewBox="0 0 225.000000 225.000000"
 preserveAspectRatio="xMidYMid meet">
<metadata>
Created by potrace 1.14, written by Peter Selinger 2001-2017
</metadata>
<g transform="translate(0.000000,225.000000) scale(0.100000,-0.100000)"
fill="#000000" stroke="none">
<path d="M0 1125 l0 -1125 1125 0 1125 0 0 1125 0 1125 -1125 0 -1125 0 0
-1125z m1216 518 c4 -16 -20 -67 -92 -190 -53 -92 -146 -252 -206 -354 -59
-103 -108 -190 -108 -193 0 -3 105 -6 233 -6 210 0 235 -2 249 -17 18 -22 80
-154 75 -159 -2 -2 -202 -3 -443 -2 l-440 3 268 460 c147 253 290 500 319 549
l52 89 43 -79 c24 -43 47 -89 50 -101z m274 -453 c73 -124 164 -277 201 -341
38 -64 69 -121 69 -127 0 -15 -145 -16 -186 -2 -24 9 -49 45 -139 201 -60 105
-113 196 -117 202 -5 8 -19 -1 -41 -27 -30 -35 -40 -40 -93 -47 -32 -4 -78 -8
-101 -8 l-42 -1 136 226 135 226 23 -39 c12 -21 82 -139 155 -263z"/>
</g>
</svg>
